PathFileType	4	(X/Y/Z)	Walk9.trc
DataRate	CameraRate	NumFrames	NumMarkers	Units	OrigDataRate	OrigDataStartFrame	OrigNumFrames
200.000000	200.000000	6	59	mm	200.000000	543	587
Frame#	Times		LFHD		RFHD		CLAV		STRN		LASI		RASI		RACR1		RUA1		RElbow		RFA1		RWRR		RWRU		RCAR		LACR1		LUA1		LElbow		LFA1		LWRR		RTH3		RTH2		RTB1		RTB2		RTB4		LTH1		LTH3		LTH2		LTB1		LTB2		LTB4		LMT1		LTB3		LCAR		LLFC		LWRU		LMFC		LToe		LMT5		RTB3		RMFC		RMMAL		RElbowM		LTH4		RTH4		RMT1		RLFC		RToe		LBHD		RCAL		RTH1		RBack		RPSI		C7		T10		LPSI		LElbowM		LMMAL		LLMAL		RBHD		LCAL
			X1	Y1	Z1	X2	Y2	Z2	X3	Y3	Z3	X4	Y4	Z4	X5	Y5	Z5	X6	Y6	Z6	X7	Y7	Z7	X8	Y8	Z8	X9	Y9	Z9	X10	Y10	Z10	X11	Y11	Z11	X12	Y12	Z12	X13	Y13	Z13	X14	Y14	Z14	X15	Y15	Z15	X16	Y16	Z16	X17	Y17	Z17	X18	Y18	Z18	X19	Y19	Z19	X20	Y20	Z20	X21	Y21	Z21	X22	Y22	Z22	X23	Y23	Z23	X24	Y24	Z24	X25	Y25	Z25	X26	Y26	Z26	X27	Y27	Z27	X28	Y28	Z28	X29	Y29	Z29	X30	Y30	Z30	X31	Y31	Z31	X32	Y32	Z32	X33	Y33	Z33	X34	Y34	Z34	X35	Y35	Z35	X36	Y36	Z36	X37	Y37	Z37	X38	Y38	Z38	X39	Y39	Z39	X40	Y40	Z40	X41	Y41	Z41	X42	Y42	Z42	X43	Y43	Z43	X44	Y44	Z44	X45	Y45	Z45	X46	Y46	Z46	X47	Y47	Z47	X48	Y48	Z48	X49	Y49	Z49	X50	Y50	Z50	X51	Y51	Z51	X52	Y52	Z52	X53	Y53	Z53	X54	Y54	Z54	X55	Y55	Z55	X56	Y56	Z56	X57	Y57	Z57	X58	Y58	Z58	X59	Y59	Z59

543	2.715	1467.3	1658.3	-104.08	1468.2	1667.1	-5.643	1452	1411.9	-31.106	1515.4	1252.8	-25.722	1388.4	997.47	-196.72	1411.4	1005.3	167.68	1339.4	1507.4	135.52	1311.8	1348.5	263.58	1312.3	1200.9	318.43	1333.5	1049.6	340.96	1347.6	927.88	277.85	1340.7	935.89	358.83	1368.7	849.01	328.45	1333.4	1469	-214.03	1323.1	1292.6	-299.73	1345.8	1129.2	-348.39	1402.8	1001.3	-353.29	1479.9	898.68	-286.34	1455.8	649.96	208.84	1466.2	754.57	201.9	1515.7	414.6	136.39	1462.4	337.31	184.55	1487.6	333.3	128.68	1313.2	762.96	-206.38	1318.3	594.98	-173.9	1373.4	683.39	-177.85	1355.7	382.88	-102.12	1306.9	296.01	-133.28	1339.5	302.86	-80.353	1358.1	36.736	-48.783	1315.2	221.08	-61.038	1517.8	818.35	-314.38	1298.4	510.74	-166.63	1447	869.31	-346.4	1324.4	506.06	-11.123	1410.5	23.55	-91.925	1285.9	25.077	-121.88	1459.4	252.53	120.11	1483.6	539.59	48.893	1395	129.92	59.765	1248.5	1130	231.76	1315.4	680.52	-190.4	1415.9	725.94	215.65	1506.6	60.276	106.98	1469.4	542.65	203.08	1540.9	68.775	147.24	1310.6	1594.7	-111.4	1292.8	104.5	85.124	1371.6	801.82	218.42	1192.9	1388.3	85.642	1145.7	1041.1	29.66	1261.3	1495.9	-35.951	1191.1	1182.4	-14.555	1150.4	1053.6	-55.666	1288.7	1062.8	-257.42	1233.9	87.25	32.358	1200.5	78.96	-51.444	1328.5	1611.2	37.673	1151.9	55.353	9.92
544	2.72	1473	1658	-103.67	1473.9	1666.7	-5.2147	1457.6	1411.5	-31.01	1521.2	1252.5	-25.845	1393.6	997.19	-196.97	1417.9	1004.7	166.99	1345	1506.9	135.67	1316.8	1348	263.7	1316.6	1200.5	318.6	1336.9	1049	341.22	1350.2	927.05	278.36	1343.2	935.19	359.25	1370.4	847.95	328.96	1339	1468.7	-213.88	1330.2	1292.4	-299.81	1354.5	1129.3	-348.76	1413	1002.1	-353.63	1490.8	900.21	-286.46	1463.3	650.34	208.35	1473.1	755.03	201.74	1527.5	415.84	136.21	1476.1	337.16	184.28	1501.9	333.7	128.61	1317.4	762.71	-206.51	1321.8	594.64	-174.02	1377.3	682.75	-177.9	1358	382.16	-102.1	1308.7	295.61	-133.23	1341.3	302.28	-80.311	1358.2	36.691	-48.807	1316.4	220.64	-60.957	1529.7	820.36	-314.46	1301.5	510.41	-166.66	1458.5	870.65	-346.81	1327.5	505.67	-11.204	1410.6	23.509	-92.03	1286	25.1	-121.8	1476	252.1	120.16	1492.3	540.12	48.265	1415.7	127.52	59.729	1252.5	1129.8	231.84	1319.3	680.32	-190.68	1423.1	726.06	215.48	1529	61.178	107.63	1477.7	542.85	202.38	1562.8	70.704	148.08	1316.3	1594.4	-111.15	1314.2	99.195	84.603	1378.6	801.75	218.6	1198.6	1387.8	85.74	1151.6	1040.7	30.153	1267	1495.5	-35.766	1196.9	1181.9	-14.147	1156	1053.3	-55.065	1297.6	1062	-258.21	1234.3	87.372	32.544	1200.9	79.227	-51.28	1334.2	1610.7	37.959	1152.2	55.811	10.113
545	2.725	1478.7	1657.6	-103.25	1479.6	1666.1	-4.7817	1463.3	1411.1	-30.906	1527	1252.1	-25.964	1398.8	996.85	-197.22	1424.4	1004	166.33	1350.7	1506.3	135.84	1321.8	1347.5	263.84	1320.9	1199.9	318.76	1340.2	1048.3	341.47	1352.9	926.18	278.84	1345.8	934.46	359.66	1372.1	846.86	329.46	1344.6	1468.3	-213.72	1337.2	1292.1	-299.87	1363.3	1129.5	-349.1	1423.1	1002.9	-353.96	1501.6	901.72	-286.58	1470.8	650.59	207.87	1480	755.35	201.57	1539.1	417.05	136.03	1489.7	337.03	184.01	1516	334.15	128.54	1321.7	762.43	-206.63	1325.4	594.29	-174.14	1381.2	682.11	-177.96	1360.3	381.42	-102.09	1310.4	295.19	-133.19	1343.1	301.69	-80.274	1358.3	36.644	-48.83	1317.7	220.18	-60.88	1541.5	822.37	-314.55	1304.6	510.06	-166.7	1470	871.98	-347.19	1330.7	505.27	-11.292	1410.7	23.47	-92.137	1286	25.124	-121.73	1492.6	251.8	120.22	1500.7	540.49	47.62	1436.4	125.36	59.689	1256.6	1129.6	231.9	1323.2	680.07	-190.93	1430.1	726.07	215.32	1551.3	62.362	108.24	1485.9	542.9	201.67	1584.6	72.895	148.87	1322	1594	-110.89	1335.6	94.133	84.098	1385.5	801.57	218.8	1204.2	1387.2	85.867	1157.5	1040.2	30.68	1272.6	1495	-35.562	1202.7	1181.5	-13.694	1161.6	1053	-54.419	1306.5	1061.2	-258.98	1234.7	87.5	32.725	1201.3	79.504	-51.119	1339.9	1610.1	38.252	1152.4	56.277	10.303
546	2.73	1484.5	1657.2	-102.83	1485.3	1665.6	-4.3423	1469	1410.7	-30.794	1532.8	1251.6	-26.077	1404	996.47	-197.46	1430.9	1003.2	165.72	1356.4	1505.7	136.03	1326.7	1347	263.98	1325.2	1199.4	318.93	1343.6	1047.5	341.72	1355.5	925.27	279.31	1348.4	933.7	360.06	1373.8	845.74	329.96	1350.2	1467.9	-213.53	1344.2	1291.8	-299.89	1372	1129.5	-349.42	1433.1	1003.7	-354.25	1512.4	903.21	-286.71	1478	650.68	207.39	1486.8	755.51	201.4	1550.6	418.24	135.85	1503.3	336.93	183.74	1530	334.65	128.47	1326	762.12	-206.73	1329	593.91	-174.27	1385.2	681.46	-178.03	1362.7	380.66	-102.08	1312.2	294.75	-133.15	1345	301.08	-80.241	1358.4	36.595	-48.851	1319	219.72	-60.805	1553.3	824.38	-314.66	1307.7	509.69	-166.75	1481.4	873.28	-347.54	1333.9	504.83	-11.383	1410.8	23.432	-92.244	1286.1	25.15	-121.66	1509.1	251.62	120.27	1509	540.7	46.956	1457	123.44	59.646	1260.7	1129.3	231.96	1327.2	679.77	-191.17	1437	725.95	215.16	1573.4	63.836	108.81	1494	542.8	200.96	1606.3	75.354	149.61	1327.8	1593.6	-110.62	1357.1	89.33	83.616	1392.4	801.29	219	1209.9	1386.6	86.024	1163.5	1039.6	31.243	1278.3	1494.4	-35.34	1208.5	1180.9	-13.196	1167.2	1052.6	-53.728	1315.4	1060.4	-259.74	1235.1	87.632	32.904	1201.6	79.792	-50.963	1345.5	1609.5	38.554	1152.7	56.753	10.491
547	2.735	1490.2	1656.7	-102.39	1491.1	1665	-3.8948	1474.7	1410.2	-30.673	1538.6	1251.1	-26.184	1409.2	996.04	-197.71	1437.4	1002.3	165.17	1362.1	1505	136.24	1331.7	1346.4	264.14	1329.5	1198.7	319.1	1347	1046.8	341.96	1358.1	924.32	279.75	1351	932.9	360.46	1375.5	844.59	330.45	1355.9	1467.4	-213.33	1351.3	1291.5	-299.89	1380.6	1129.6	-349.7	1443.1	1004.4	-354.52	1523.2	904.67	-286.82	1485.2	650.63	206.91	1493.5	755.51	201.22	1561.9	419.4	135.65	1516.7	336.86	183.46	1543.9	335.2	128.38	1330.3	761.78	-206.81	1332.6	593.5	-174.4	1389.1	680.81	-178.11	1365.1	379.87	-102.09	1314	294.31	-133.11	1346.8	300.45	-80.212	1358.5	36.545	-48.872	1320.3	219.24	-60.732	1565.1	826.39	-314.79	1310.9	509.3	-166.8	1492.7	874.56	-347.86	1337.2	504.38	-11.476	1410.9	23.395	-92.352	1286.1	25.177	-121.59	1525.5	251.57	120.32	1517.1	540.75	46.272	1477.6	121.78	59.601	1264.9	1129	232.01	1331.1	679.41	-191.37	1443.8	725.7	215.01	1595.4	65.608	109.33	1501.9	542.56	200.23	1627.8	78.087	150.28	1333.6	1593.1	-110.34	1378.6	84.796	83.169	1399.2	800.89	219.19	1215.6	1385.9	86.21	1169.5	1039	31.845	1283.9	1493.8	-35.099	1214.3	1180.4	-12.656	1172.9	1052.2	-52.991	1324.3	1059.6	-260.46	1235.6	87.769	33.08	1202	80.089	-50.812	1351.2	1608.8	38.865	1153	57.238	10.676
548	2.74	1496	1656.2	-101.95	1496.8	1664.3	-3.4373	1480.4	1409.6	-30.54	1544.5	1250.6	-26.285	1414.4	995.56	-197.96	1443.9	1001.3	164.67	1367.9	1504.3	136.47	1336.7	1345.7	264.3	1333.8	1198.1	319.26	1350.4	1045.9	342.2	1360.6	923.33	280.15	1353.7	932.08	360.85	1377.3	843.43	330.95	1361.5	1466.9	-213.11	1358.3	1291.1	-299.86	1389.3	1129.6	-349.96	1453	1005.1	-354.76	1533.9	906.11	-286.94	1492.2	650.41	206.44	1500.2	755.35	201.03	1573	420.55	135.43	1530	336.82	183.18	1557.7	335.82	128.28	1334.6	761.41	-206.89	1336.2	593.08	-174.54	1393.1	680.15	-178.2	1367.5	379.07	-102.09	1315.9	293.84	-133.08	1348.7	299.81	-80.185	1358.6	36.494	-48.893	1321.6	218.76	-60.659	1576.7	828.41	-314.93	1314.1	508.9	-166.85	1503.9	875.81	-348.15	1340.5	503.9	-11.569	1411	23.359	-92.46	1286.1	25.204	-121.51	1541.8	251.65	120.36	1525.1	540.63	45.565	1498.1	120.38	59.555	1269	1128.6	232.04	1335.1	679.01	-191.55	1450.6	725.32	214.85	1617.2	67.681	109.78	1509.7	542.18	199.5	1649.2	81.098	150.86	1339.4	1592.6	-110.05	1400.2	80.544	82.766	1405.9	800.38	219.37	1221.3	1385.2	86.423	1175.5	1038.4	32.487	1289.6	1493.1	-34.84	1220.2	1179.7	-12.075	1178.5	1051.7	-52.21	1333.1	1058.7	-261.15	1236	87.91	33.255	1202.4	80.395	-50.665	1357	1608.1	39.187	1153.3	57.731	10.859
